<svg xmlns="http://www.w3.org/2000/svg" viewBox="0 0 140 180">
<path d="M64,30 L92,30 C94,52 92,66 86,80 L74,80 C66,66 62,52 64,30 Z" fill="#F4E3BC" fill-opacity="0.9"/>
<path d="M69,44 L88,44 L87,60 L70,60 Z" fill="#C13A2A" fill-opacity="0.85"/>
<path d="M64,30 L92,30 C94,52 92,66 86,80 L74,80 C66,66 62,52 64,30 M68,30 L68,20 L88,20 L88,30" fill="none" stroke="#1b1b1b" stroke-width="3" stroke-linecap="round" stroke-linejoin="round"/>
<path d="M70,44 C75,43 83,43 87,44 M70,60 C75,61 83,61 87,60" fill="none" stroke="#1b1b1b" stroke-width="2.2" stroke-linecap="round"/>
<path d="M22,78 C26,92 38,104 52,108 L66,108 C80,104 92,92 96,78 C72,72 46,72 22,78 Z" fill="#DDE9DC" fill-opacity="0.9"/>
<path d="M20,74 C24,90 36,104 51,109 L51,140 M67,109 L67,140 M67,109 C82,104 94,90 98,74 C72,66 46,66 20,74 M51,140 C42,142 36,146 34,152 L84,152 C82,146 76,142 67,140" fill="none" stroke="#1b1b1b" stroke-width="3.4" stroke-linecap="round" stroke-linejoin="round"/>
<circle cx="24" cy="71.5" r="1.6" fill="#1b1b1b"/><circle cx="32" cy="69.8" r="1.3" fill="#1b1b1b"/><circle cx="41" cy="70.9" r="1.7" fill="#1b1b1b"/><circle cx="50" cy="68.9" r="1.2" fill="#1b1b1b"/><circle cx="59" cy="70.5" r="1.5" fill="#1b1b1b"/><circle cx="78" cy="69.4" r="1.6" fill="#1b1b1b"/><circle cx="88" cy="71.2" r="1.3" fill="#1b1b1b"/><circle cx="95" cy="70.1" r="1.5" fill="#1b1b1b"/>
</svg>
