<svg xmlns="http://www.w3.org/2000/svg" viewBox="0 0 140 180">
<path d="M43,72 C55,68 85,68 97,72 C96,95 95,125 92,148 C80,153 60,153 48,148 C45,125 44,95 43,72 Z" fill="#E8A93C" fill-opacity="0.85"/>
<path d="M46,90 C60,85 72,88 78,96 C77,110 76,130 74,146 C64,149 54,148 50,145 C47,128 46,112 46,90 Z" fill="#ffffff" fill-opacity="0.18"/>
<path d="M38,52 C37,58 40,96 42,120 C43,140 46,152 50,155 C61,160 79,160 90,155 C94,152 97,140 98,120 C100,96 103,58 102,52" fill="none" stroke="#1b1b1b" stroke-width="3.4" stroke-linecap="round" stroke-linejoin="round"/>
<path d="M38,52 C52,47 88,47 102,52" fill="none" stroke="#1b1b1b" stroke-width="3.4" stroke-linecap="round" stroke-linejoin="round"/>
<path d="M48,84 C47,100 48,122 50,138" fill="none" stroke="#1b1b1b" stroke-width="2.2" stroke-linecap="round" stroke-linejoin="round"/>
<path d="M64,18 C78,8 100,10 110,26 C94,22 78,24 64,18 Z" fill="#C13A2A" fill-opacity="0.85"/>
<path d="M62,18 C76,6 102,8 112,27 C94,20 78,22 62,18 M112,27 C96,28 78,26 62,18" fill="none" stroke="#1b1b1b" stroke-width="2.4" stroke-linecap="round" stroke-linejoin="round"/>
<path d="M86,24 L72,86" fill="none" stroke="#1b1b1b" stroke-width="2.4" stroke-linecap="round" stroke-linejoin="round"/>
</svg>
