<svg xmlns="http://www.w3.org/2000/svg" viewBox="0 0 140 180">
<path d="M34,66 C33,90 34,124 38,148 C48,153 74,153 86,148 C90,124 91,90 90,66 C72,60 50,60 34,66 Z" fill="#DE7386" fill-opacity="0.8"/>
<path d="M40,84 C50,80 58,82 62,88 C61,112 60,130 58,144 C50,144 44,141 42,136 C39,120 39,100 40,84 Z" fill="#ffffff" fill-opacity="0.22"/>
<path d="M30,58 C30,48 38,44 44,48 C46,40 58,38 62,44 C66,36 78,38 80,46 C88,42 96,48 94,58 C74,64 46,64 30,58 Z" fill="#FFF7EA" fill-opacity="0.95"/>
<path d="M30,58 C30,48 38,44 44,48 C46,40 58,38 62,44 C66,36 78,38 80,46 C88,42 96,48 94,58" fill="none" stroke="#1b1b1b" stroke-width="3" stroke-linecap="round" stroke-linejoin="round"/>
<path d="M32,60 C31,90 32,124 37,150 C48,156 76,156 87,150 C92,124 93,90 91,60" fill="none" stroke="#1b1b1b" stroke-width="3.4" stroke-linecap="round" stroke-linejoin="round"/>
<path d="M91,78 C104,80 110,90 108,102 C106,114 98,120 91,120" fill="none" stroke="#1b1b1b" stroke-width="3.4" stroke-linecap="round" stroke-linejoin="round"/>
<path d="M44,76 C43,96 43,122 46,140" fill="none" stroke="#1b1b1b" stroke-width="2.2" stroke-linecap="round" stroke-linejoin="round"/>
</svg>
