<svg xmlns="http://www.w3.org/2000/svg" viewBox="0 0 140 180">
<path d="M30,58 C34,74 48,88 62,92 L78,92 C92,88 106,74 110,58 C86,52 54,52 30,58 Z" fill="#DDE9DC" fill-opacity="0.85"/>
<path d="M38,62 C42,72 50,80 58,84 L64,84 C58,76 50,68 46,62 Z" fill="#ffffff" fill-opacity="0.25"/>
<path d="M62,34 C58,28 62,22 68,22 C62,16 68,8 76,10 M80,30 C86,26 84,18 78,17" fill="none" stroke="#1b1b1b" stroke-width="2.4" stroke-linecap="round" stroke-linejoin="round"/>
<path d="M28,54 C32,72 46,88 61,93 L61,132 M79,93 L79,132 M79,93 C94,88 108,72 112,54 C84,46 56,46 28,54 M61,132 C50,134 44,138 42,144 L98,144 C96,138 90,134 79,132" fill="none" stroke="#1b1b1b" stroke-width="3.4" stroke-linecap="round" stroke-linejoin="round"/>
<circle cx="30.8" cy="52.3" r="1.8" fill="#1b1b1b" fill-opacity="1"/>
<circle cx="38.0" cy="49.4" r="1.4" fill="#1b1b1b" fill-opacity="1"/>
<circle cx="46.4" cy="50.9" r="1.6" fill="#1b1b1b" fill-opacity="1"/>
<circle cx="55.2" cy="50.6" r="1.3" fill="#1b1b1b" fill-opacity="1"/>
<circle cx="61.6" cy="52.0" r="1.6" fill="#1b1b1b" fill-opacity="1"/>
<circle cx="71.0" cy="48.9" r="1.5" fill="#1b1b1b" fill-opacity="1"/>
<circle cx="78.9" cy="52.6" r="1.3" fill="#1b1b1b" fill-opacity="1"/>
<circle cx="85.6" cy="52.5" r="1.0" fill="#1b1b1b" fill-opacity="1"/>
<circle cx="94.8" cy="52.3" r="1.6" fill="#1b1b1b" fill-opacity="1"/>
<circle cx="103.1" cy="49.8" r="1.6" fill="#1b1b1b" fill-opacity="1"/>
<circle cx="111.5" cy="50.9" r="1.2" fill="#1b1b1b" fill-opacity="1"/>
<path d="M104,44 C112,40 120,44 121,52 C114,56 106,54 104,44 Z" fill="#5A9155" fill-opacity="0.9"/>
<path d="M104,44 C112,40 120,44 121,52 C114,56 106,54 104,44 M108,46 L117,50" fill="none" stroke="#1b1b1b" stroke-width="2.6" stroke-linecap="round" stroke-linejoin="round"/>
</svg>
