<svg width="648" height="164" viewBox="0 0 648 164" fill="none" xmlns="http://www.w3.org/2000/svg">
<path d="M-5.62519e-07 160.446V3.09401H30.94L44.2 36.244V160.446H-5.62519e-07ZM108.29 160.446L17.017 45.747L30.94 3.09401L122.213 117.793L108.29 160.446ZM108.29 160.446L97.24 125.528V3.09401H141.44V160.446H108.29ZM158.637 160.446V3.09401H202.837V160.446H158.637ZM194.439 160.446V123.76H278.861V160.446H194.439ZM194.439 98.124V62.322H270.684V98.124H194.439ZM194.439 39.78V3.09401H277.535V39.78H194.439ZM386.415 160.446L344.867 90.389H341.11L282.103 3.09401H334.701L374.923 69.173H378.68L438.35 160.446H386.415ZM279.23 160.446L335.806 76.245L371.608 91.273L329.839 160.446H279.23ZM379.343 87.295L343.541 72.267L384.868 3.09401H435.477L379.343 87.295ZM515.07 163.54C502.694 163.54 491.276 161.477 480.815 157.352C470.502 153.227 461.441 147.481 453.632 140.114C445.971 132.747 440.004 124.055 435.731 114.036C431.458 104.017 429.322 93.1883 429.322 81.549C429.322 69.7623 431.385 58.9333 435.51 49.062C439.783 39.1907 445.75 30.5717 453.411 23.205C461.072 15.8383 470.06 10.166 480.373 6.18801C490.834 2.06268 502.252 1.19805e-05 514.628 1.19805e-05C527.004 1.19805e-05 538.349 2.06268 548.662 6.18801C559.123 10.166 568.184 15.8383 575.845 23.205C583.506 30.5717 589.4 39.2643 593.525 49.283C597.798 59.1543 599.934 69.9833 599.934 81.77C599.934 93.4093 597.798 104.238 593.525 114.257C589.4 124.128 583.506 132.821 575.845 140.335C568.184 147.702 559.196 153.448 548.883 157.573C538.57 161.551 527.299 163.54 515.07 163.54ZM514.628 124.644C522.879 124.644 530.024 122.876 536.065 119.34C542.106 115.804 546.747 110.795 549.988 104.312C553.229 97.8293 554.85 90.2417 554.85 81.549C554.85 75.0663 553.892 69.2467 551.977 64.09C550.209 58.786 547.557 54.2923 544.021 50.609C540.485 46.7783 536.212 43.9053 531.203 41.99C526.341 39.9273 520.816 38.896 514.628 38.896C506.377 38.896 499.232 40.664 493.191 44.2C487.15 47.5887 482.509 52.5243 479.268 59.007C476.027 65.3423 474.406 72.8563 474.406 81.549C474.406 88.179 475.29 94.146 477.058 99.45C478.973 104.754 481.699 109.321 485.235 113.152C488.771 116.835 492.97 119.708 497.832 121.771C502.841 123.686 508.44 124.644 514.628 124.644Z" fill="#181818"/>
<path d="M623.821 163.098C616.896 163.098 611.15 160.741 606.583 156.026C602.016 151.311 599.732 145.565 599.732 138.788C599.732 131.863 602.016 126.044 606.583 121.329C611.15 116.614 616.896 114.257 623.821 114.257C630.746 114.257 636.418 116.614 640.838 121.329C645.405 126.044 647.689 131.863 647.689 138.788C647.689 145.565 645.405 151.311 640.838 156.026C636.418 160.741 630.746 163.098 623.821 163.098Z" fill="#C2CDD8"/>
</svg>
